<mxfile host="app.diagrams.net" modified="2024-02-25T16:10:34.459Z" agent="Mozilla/5.0 (Windows NT 10.0; Win64; x64) AppleWebKit/537.36 (KHTML, like Gecko) Chrome/121.0.0.0 Safari/537.36 Edg/121.0.0.0" etag="bYP_0vDJf-FwSNU40Yk_" version="23.1.6" type="device">
  <diagram id="C5RBs43oDa-KdzZeNtuy" name="Page-1">
    <mxGraphModel dx="1386" dy="751" grid="1" gridSize="10" guides="1" tooltips="1" connect="1" arrows="1" fold="1" page="1" pageScale="1" pageWidth="827" pageHeight="1169" math="0" shadow="0">
      <root>
        <mxCell id="WIyWlLk6GJQsqaUBKTNV-0" />
        <mxCell id="WIyWlLk6GJQsqaUBKTNV-1" parent="WIyWlLk6GJQsqaUBKTNV-0" />
        <mxCell id="Y7EgibA1khscgtq0bHv2-1" value="fn read_asm_file" style="rounded=0;whiteSpace=wrap;html=1;" vertex="1" parent="WIyWlLk6GJQsqaUBKTNV-1">
          <mxGeometry x="445" y="350" width="120" height="60" as="geometry" />
        </mxCell>
        <mxCell id="Y7EgibA1khscgtq0bHv2-5" value="fn load_asm_file" style="rounded=0;whiteSpace=wrap;html=1;" vertex="1" parent="WIyWlLk6GJQsqaUBKTNV-1">
          <mxGeometry x="435" y="180" width="140" height="60" as="geometry" />
        </mxCell>
        <mxCell id="Y7EgibA1khscgtq0bHv2-6" value="" style="endArrow=classic;html=1;rounded=0;exitX=0.5;exitY=1;exitDx=0;exitDy=0;entryX=0.5;entryY=0;entryDx=0;entryDy=0;" edge="1" parent="WIyWlLk6GJQsqaUBKTNV-1" source="Y7EgibA1khscgtq0bHv2-56" target="Y7EgibA1khscgtq0bHv2-5">
          <mxGeometry width="50" height="50" relative="1" as="geometry">
            <mxPoint x="510" y="190" as="sourcePoint" />
            <mxPoint x="510" y="240" as="targetPoint" />
          </mxGeometry>
        </mxCell>
        <mxCell id="Y7EgibA1khscgtq0bHv2-8" value="" style="endArrow=classic;html=1;rounded=0;exitX=0.5;exitY=1;exitDx=0;exitDy=0;entryX=0.5;entryY=0;entryDx=0;entryDy=0;" edge="1" parent="WIyWlLk6GJQsqaUBKTNV-1" source="Y7EgibA1khscgtq0bHv2-5" target="Y7EgibA1khscgtq0bHv2-1">
          <mxGeometry width="50" height="50" relative="1" as="geometry">
            <mxPoint x="410" y="440" as="sourcePoint" />
            <mxPoint x="530" y="400" as="targetPoint" />
          </mxGeometry>
        </mxCell>
        <mxCell id="Y7EgibA1khscgtq0bHv2-12" value="" style="endArrow=classic;html=1;rounded=0;exitX=0.5;exitY=1;exitDx=0;exitDy=0;entryX=0.5;entryY=0;entryDx=0;entryDy=0;" edge="1" parent="WIyWlLk6GJQsqaUBKTNV-1" target="Y7EgibA1khscgtq0bHv2-14">
          <mxGeometry width="50" height="50" relative="1" as="geometry">
            <mxPoint x="504" y="410" as="sourcePoint" />
            <mxPoint x="350" y="470" as="targetPoint" />
          </mxGeometry>
        </mxCell>
        <mxCell id="Y7EgibA1khscgtq0bHv2-13" value="" style="endArrow=classic;html=1;rounded=0;exitX=0.5;exitY=1;exitDx=0;exitDy=0;entryX=0.5;entryY=0;entryDx=0;entryDy=0;" edge="1" parent="WIyWlLk6GJQsqaUBKTNV-1" source="Y7EgibA1khscgtq0bHv2-1" target="Y7EgibA1khscgtq0bHv2-15">
          <mxGeometry width="50" height="50" relative="1" as="geometry">
            <mxPoint x="520" y="420" as="sourcePoint" />
            <mxPoint x="650" y="470" as="targetPoint" />
          </mxGeometry>
        </mxCell>
        <mxCell id="Y7EgibA1khscgtq0bHv2-14" value="fn create_simulator_display_text" style="rounded=0;whiteSpace=wrap;html=1;" vertex="1" parent="WIyWlLk6GJQsqaUBKTNV-1">
          <mxGeometry x="240" y="480" width="180" height="60" as="geometry" />
        </mxCell>
        <mxCell id="Y7EgibA1khscgtq0bHv2-15" value="fn populate_queue" style="rounded=0;whiteSpace=wrap;html=1;" vertex="1" parent="WIyWlLk6GJQsqaUBKTNV-1">
          <mxGeometry x="620" y="480" width="120" height="60" as="geometry" />
        </mxCell>
        <mxCell id="Y7EgibA1khscgtq0bHv2-20" value="string(filepath)" style="text;html=1;align=center;verticalAlign=middle;whiteSpace=wrap;rounded=0;" vertex="1" parent="WIyWlLk6GJQsqaUBKTNV-1">
          <mxGeometry x="520" y="310" width="60" height="30" as="geometry" />
        </mxCell>
        <mxCell id="Y7EgibA1khscgtq0bHv2-21" value="Signal(function call)" style="text;html=1;align=center;verticalAlign=middle;whiteSpace=wrap;rounded=0;" vertex="1" parent="WIyWlLk6GJQsqaUBKTNV-1">
          <mxGeometry x="530" y="120" width="60" height="30" as="geometry" />
        </mxCell>
        <mxCell id="Y7EgibA1khscgtq0bHv2-22" value="File Selection" style="text;html=1;align=center;verticalAlign=middle;whiteSpace=wrap;rounded=0;" vertex="1" parent="WIyWlLk6GJQsqaUBKTNV-1">
          <mxGeometry x="80" y="300" width="60" height="30" as="geometry" />
        </mxCell>
        <mxCell id="Y7EgibA1khscgtq0bHv2-24" value="string(filepath)" style="text;html=1;align=center;verticalAlign=middle;whiteSpace=wrap;rounded=0;" vertex="1" parent="WIyWlLk6GJQsqaUBKTNV-1">
          <mxGeometry x="275" y="230" width="130" height="30" as="geometry" />
        </mxCell>
        <mxCell id="Y7EgibA1khscgtq0bHv2-25" value="Note: loops and passes a single line per iteration&amp;nbsp;" style="text;html=1;align=center;verticalAlign=middle;whiteSpace=wrap;rounded=0;" vertex="1" parent="WIyWlLk6GJQsqaUBKTNV-1">
          <mxGeometry x="570" y="365" width="180" height="30" as="geometry" />
        </mxCell>
        <mxCell id="Y7EgibA1khscgtq0bHv2-30" value="fn asm_to_function" style="rounded=0;whiteSpace=wrap;html=1;" vertex="1" parent="WIyWlLk6GJQsqaUBKTNV-1">
          <mxGeometry x="620" y="600" width="120" height="60" as="geometry" />
        </mxCell>
        <mxCell id="Y7EgibA1khscgtq0bHv2-31" value="Note: loops and passes a single line per iteration" style="text;html=1;align=center;verticalAlign=middle;whiteSpace=wrap;rounded=0;" vertex="1" parent="WIyWlLk6GJQsqaUBKTNV-1">
          <mxGeometry x="750" y="495" width="140" height="30" as="geometry" />
        </mxCell>
        <mxCell id="Y7EgibA1khscgtq0bHv2-32" value="string(assembly line)" style="text;html=1;align=center;verticalAlign=middle;whiteSpace=wrap;rounded=0;" vertex="1" parent="WIyWlLk6GJQsqaUBKTNV-1">
          <mxGeometry x="620" y="430" width="140" height="30" as="geometry" />
        </mxCell>
        <mxCell id="Y7EgibA1khscgtq0bHv2-33" value="string(assembly line)" style="text;html=1;align=center;verticalAlign=middle;whiteSpace=wrap;rounded=0;" vertex="1" parent="WIyWlLk6GJQsqaUBKTNV-1">
          <mxGeometry x="270" y="430" width="140" height="30" as="geometry" />
        </mxCell>
        <mxCell id="Y7EgibA1khscgtq0bHv2-34" value="" style="endArrow=classic;html=1;rounded=0;exitX=0.5;exitY=1;exitDx=0;exitDy=0;entryX=0.5;entryY=0;entryDx=0;entryDy=0;" edge="1" parent="WIyWlLk6GJQsqaUBKTNV-1" source="Y7EgibA1khscgtq0bHv2-15" target="Y7EgibA1khscgtq0bHv2-30">
          <mxGeometry width="50" height="50" relative="1" as="geometry">
            <mxPoint x="480" y="550" as="sourcePoint" />
            <mxPoint x="530" y="500" as="targetPoint" />
          </mxGeometry>
        </mxCell>
        <mxCell id="Y7EgibA1khscgtq0bHv2-35" value="Dict:&lt;br&gt;opcode_to_function map" style="ellipse;whiteSpace=wrap;html=1;aspect=fixed;" vertex="1" parent="WIyWlLk6GJQsqaUBKTNV-1">
          <mxGeometry x="860" y="575" width="110" height="110" as="geometry" />
        </mxCell>
        <mxCell id="Y7EgibA1khscgtq0bHv2-39" value="" style="endArrow=classic;html=1;rounded=0;exitX=0;exitY=0.5;exitDx=0;exitDy=0;entryX=1;entryY=0.25;entryDx=0;entryDy=0;" edge="1" parent="WIyWlLk6GJQsqaUBKTNV-1" source="Y7EgibA1khscgtq0bHv2-35" target="Y7EgibA1khscgtq0bHv2-30">
          <mxGeometry width="50" height="50" relative="1" as="geometry">
            <mxPoint x="480" y="550" as="sourcePoint" />
            <mxPoint x="530" y="500" as="targetPoint" />
          </mxGeometry>
        </mxCell>
        <mxCell id="Y7EgibA1khscgtq0bHv2-40" value="" style="endArrow=classic;html=1;rounded=0;entryX=0;entryY=0.5;entryDx=0;entryDy=0;" edge="1" parent="WIyWlLk6GJQsqaUBKTNV-1" target="Y7EgibA1khscgtq0bHv2-35">
          <mxGeometry width="50" height="50" relative="1" as="geometry">
            <mxPoint x="740" y="650" as="sourcePoint" />
            <mxPoint x="790" y="600" as="targetPoint" />
          </mxGeometry>
        </mxCell>
        <mxCell id="Y7EgibA1khscgtq0bHv2-41" value="String(opcode)" style="text;html=1;align=center;verticalAlign=middle;whiteSpace=wrap;rounded=0;" vertex="1" parent="WIyWlLk6GJQsqaUBKTNV-1">
          <mxGeometry x="770" y="655" width="60" height="30" as="geometry" />
        </mxCell>
        <mxCell id="Y7EgibA1khscgtq0bHv2-42" value="function" style="text;html=1;align=center;verticalAlign=middle;whiteSpace=wrap;rounded=0;" vertex="1" parent="WIyWlLk6GJQsqaUBKTNV-1">
          <mxGeometry x="760" y="595" width="80" height="30" as="geometry" />
        </mxCell>
        <mxCell id="Y7EgibA1khscgtq0bHv2-43" value="" style="endArrow=classic;html=1;rounded=0;exitX=0.5;exitY=1;exitDx=0;exitDy=0;entryX=0.5;entryY=0;entryDx=0;entryDy=0;" edge="1" parent="WIyWlLk6GJQsqaUBKTNV-1" source="Y7EgibA1khscgtq0bHv2-30" target="Y7EgibA1khscgtq0bHv2-46">
          <mxGeometry width="50" height="50" relative="1" as="geometry">
            <mxPoint x="480" y="550" as="sourcePoint" />
            <mxPoint x="680" y="720" as="targetPoint" />
          </mxGeometry>
        </mxCell>
        <mxCell id="Y7EgibA1khscgtq0bHv2-45" value="string(assembly line)" style="text;html=1;align=center;verticalAlign=middle;whiteSpace=wrap;rounded=0;" vertex="1" parent="WIyWlLk6GJQsqaUBKTNV-1">
          <mxGeometry x="670" y="545" width="160" height="30" as="geometry" />
        </mxCell>
        <mxCell id="Y7EgibA1khscgtq0bHv2-46" value="fn Queue.enqueue" style="rounded=0;whiteSpace=wrap;html=1;" vertex="1" parent="WIyWlLk6GJQsqaUBKTNV-1">
          <mxGeometry x="620" y="760" width="120" height="60" as="geometry" />
        </mxCell>
        <mxCell id="Y7EgibA1khscgtq0bHv2-47" value="tuple(function, list(args))" style="text;html=1;align=center;verticalAlign=middle;whiteSpace=wrap;rounded=0;" vertex="1" parent="WIyWlLk6GJQsqaUBKTNV-1">
          <mxGeometry x="660" y="700" width="180" height="30" as="geometry" />
        </mxCell>
        <mxCell id="Y7EgibA1khscgtq0bHv2-48" value="" style="endArrow=classic;html=1;rounded=0;exitX=0;exitY=0.5;exitDx=0;exitDy=0;entryX=0;entryY=0.5;entryDx=0;entryDy=0;" edge="1" parent="WIyWlLk6GJQsqaUBKTNV-1" source="Y7EgibA1khscgtq0bHv2-46" target="Y7EgibA1khscgtq0bHv2-15">
          <mxGeometry width="50" height="50" relative="1" as="geometry">
            <mxPoint x="480" y="550" as="sourcePoint" />
            <mxPoint x="530" y="500" as="targetPoint" />
            <Array as="points">
              <mxPoint x="560" y="650" />
            </Array>
          </mxGeometry>
        </mxCell>
        <mxCell id="Y7EgibA1khscgtq0bHv2-50" value="fn widget_state_asm_loaded" style="rounded=0;whiteSpace=wrap;html=1;" vertex="1" parent="WIyWlLk6GJQsqaUBKTNV-1">
          <mxGeometry x="535" y="890" width="150" height="60" as="geometry" />
        </mxCell>
        <mxCell id="Y7EgibA1khscgtq0bHv2-56" value="User Input:&lt;br&gt;Button pressed" style="rhombus;whiteSpace=wrap;html=1;" vertex="1" parent="WIyWlLk6GJQsqaUBKTNV-1">
          <mxGeometry x="450" y="10" width="110" height="100" as="geometry" />
        </mxCell>
        <mxCell id="Y7EgibA1khscgtq0bHv2-57" value="" style="rounded=0;whiteSpace=wrap;html=1;fill=false;fillColor=none;" vertex="1" parent="WIyWlLk6GJQsqaUBKTNV-1">
          <mxGeometry x="540" y="570" width="445" height="260" as="geometry" />
        </mxCell>
        <mxCell id="Y7EgibA1khscgtq0bHv2-59" value="Iterate" style="text;html=1;align=center;verticalAlign=middle;whiteSpace=wrap;rounded=0;" vertex="1" parent="WIyWlLk6GJQsqaUBKTNV-1">
          <mxGeometry x="530" y="687.5" width="60" height="30" as="geometry" />
        </mxCell>
        <mxCell id="Y7EgibA1khscgtq0bHv2-71" style="edgeStyle=orthogonalEdgeStyle;rounded=0;orthogonalLoop=1;jettySize=auto;html=1;exitX=0.5;exitY=1;exitDx=0;exitDy=0;entryX=0.5;entryY=0;entryDx=0;entryDy=0;" edge="1" parent="WIyWlLk6GJQsqaUBKTNV-1" source="Y7EgibA1khscgtq0bHv2-63" target="Y7EgibA1khscgtq0bHv2-50">
          <mxGeometry relative="1" as="geometry" />
        </mxCell>
        <mxCell id="Y7EgibA1khscgtq0bHv2-63" value="" style="rounded=0;whiteSpace=wrap;html=1;fillColor=none;" vertex="1" parent="WIyWlLk6GJQsqaUBKTNV-1">
          <mxGeometry x="230" y="470" width="760" height="370" as="geometry" />
        </mxCell>
        <mxCell id="Y7EgibA1khscgtq0bHv2-67" value="" style="endArrow=classic;html=1;rounded=0;exitX=0.5;exitY=1;exitDx=0;exitDy=0;" edge="1" parent="WIyWlLk6GJQsqaUBKTNV-1" source="Y7EgibA1khscgtq0bHv2-14">
          <mxGeometry width="50" height="50" relative="1" as="geometry">
            <mxPoint x="390" y="700" as="sourcePoint" />
            <mxPoint x="330" y="890" as="targetPoint" />
          </mxGeometry>
        </mxCell>
        <mxCell id="Y7EgibA1khscgtq0bHv2-68" value="fn update_simulator_display" style="rounded=0;whiteSpace=wrap;html=1;" vertex="1" parent="WIyWlLk6GJQsqaUBKTNV-1">
          <mxGeometry x="255" y="890" width="150" height="60" as="geometry" />
        </mxCell>
        <mxCell id="Y7EgibA1khscgtq0bHv2-69" value="tuple(string(mem location), string(instruction))" style="text;html=1;align=center;verticalAlign=middle;whiteSpace=wrap;rounded=0;" vertex="1" parent="WIyWlLk6GJQsqaUBKTNV-1">
          <mxGeometry x="334" y="660" width="160" height="30" as="geometry" />
        </mxCell>
        <mxCell id="Y7EgibA1khscgtq0bHv2-70" value="" style="rounded=0;whiteSpace=wrap;html=1;fillColor=none;" vertex="1" parent="WIyWlLk6GJQsqaUBKTNV-1">
          <mxGeometry x="220" y="300" width="780" height="660" as="geometry" />
        </mxCell>
        <mxCell id="Y7EgibA1khscgtq0bHv2-72" value="Function Call&lt;div&gt;&lt;br/&gt;&lt;/div&gt;" style="text;html=1;align=center;verticalAlign=middle;whiteSpace=wrap;rounded=0;" vertex="1" parent="WIyWlLk6GJQsqaUBKTNV-1">
          <mxGeometry x="620" y="860" width="60" height="30" as="geometry" />
        </mxCell>
        <mxCell id="Y7EgibA1khscgtq0bHv2-75" value="" style="endArrow=classic;html=1;rounded=0;exitX=0.5;exitY=1;exitDx=0;exitDy=0;entryX=1;entryY=0.5;entryDx=0;entryDy=0;" edge="1" parent="WIyWlLk6GJQsqaUBKTNV-1" source="Y7EgibA1khscgtq0bHv2-5" target="Y7EgibA1khscgtq0bHv2-80">
          <mxGeometry width="50" height="50" relative="1" as="geometry">
            <mxPoint x="390" y="350" as="sourcePoint" />
            <mxPoint x="368.75" y="380" as="targetPoint" />
          </mxGeometry>
        </mxCell>
        <mxCell id="Y7EgibA1khscgtq0bHv2-76" value="" style="endArrow=classic;html=1;rounded=0;exitX=0.5;exitY=0;exitDx=0;exitDy=0;entryX=0;entryY=0.5;entryDx=0;entryDy=0;" edge="1" parent="WIyWlLk6GJQsqaUBKTNV-1" source="Y7EgibA1khscgtq0bHv2-80" target="Y7EgibA1khscgtq0bHv2-5">
          <mxGeometry width="50" height="50" relative="1" as="geometry">
            <mxPoint x="326.25" y="356" as="sourcePoint" />
            <mxPoint x="440" y="300" as="targetPoint" />
          </mxGeometry>
        </mxCell>
        <mxCell id="Y7EgibA1khscgtq0bHv2-77" value="User Input:&lt;br&gt;File Selection" style="rhombus;whiteSpace=wrap;html=1;" vertex="1" parent="WIyWlLk6GJQsqaUBKTNV-1">
          <mxGeometry x="40" y="215" width="80" height="80" as="geometry" />
        </mxCell>
        <mxCell id="Y7EgibA1khscgtq0bHv2-79" value="Function call" style="text;html=1;align=center;verticalAlign=middle;whiteSpace=wrap;rounded=0;" vertex="1" parent="WIyWlLk6GJQsqaUBKTNV-1">
          <mxGeometry x="400" y="265" width="60" height="30" as="geometry" />
        </mxCell>
        <mxCell id="Y7EgibA1khscgtq0bHv2-80" value="fn file_slection_dialogue" style="rounded=0;whiteSpace=wrap;html=1;" vertex="1" parent="WIyWlLk6GJQsqaUBKTNV-1">
          <mxGeometry x="240" y="360" width="120" height="60" as="geometry" />
        </mxCell>
        <mxCell id="Y7EgibA1khscgtq0bHv2-81" value="Windows file selection dialogue" style="ellipse;shape=cloud;whiteSpace=wrap;html=1;" vertex="1" parent="WIyWlLk6GJQsqaUBKTNV-1">
          <mxGeometry x="20" y="350" width="150" height="80" as="geometry" />
        </mxCell>
        <mxCell id="Y7EgibA1khscgtq0bHv2-82" value="" style="endArrow=classic;html=1;rounded=0;exitX=0.5;exitY=1;exitDx=0;exitDy=0;entryX=0.4;entryY=0.1;entryDx=0;entryDy=0;entryPerimeter=0;" edge="1" parent="WIyWlLk6GJQsqaUBKTNV-1" source="Y7EgibA1khscgtq0bHv2-77" target="Y7EgibA1khscgtq0bHv2-81">
          <mxGeometry width="50" height="50" relative="1" as="geometry">
            <mxPoint x="390" y="470" as="sourcePoint" />
            <mxPoint x="440" y="420" as="targetPoint" />
          </mxGeometry>
        </mxCell>
        <mxCell id="Y7EgibA1khscgtq0bHv2-83" value="" style="endArrow=classic;html=1;rounded=0;exitX=0.875;exitY=0.5;exitDx=0;exitDy=0;exitPerimeter=0;entryX=0;entryY=0.5;entryDx=0;entryDy=0;" edge="1" parent="WIyWlLk6GJQsqaUBKTNV-1" source="Y7EgibA1khscgtq0bHv2-81" target="Y7EgibA1khscgtq0bHv2-80">
          <mxGeometry width="50" height="50" relative="1" as="geometry">
            <mxPoint x="390" y="470" as="sourcePoint" />
            <mxPoint x="210" y="320" as="targetPoint" />
          </mxGeometry>
        </mxCell>
        <mxCell id="Y7EgibA1khscgtq0bHv2-84" value="string(filepath)" style="text;html=1;align=center;verticalAlign=middle;whiteSpace=wrap;rounded=0;" vertex="1" parent="WIyWlLk6GJQsqaUBKTNV-1">
          <mxGeometry x="130" y="360" width="130" height="30" as="geometry" />
        </mxCell>
        <mxCell id="Y7EgibA1khscgtq0bHv2-86" value="" style="rounded=0;whiteSpace=wrap;html=1;fillColor=none;" vertex="1" parent="WIyWlLk6GJQsqaUBKTNV-1">
          <mxGeometry x="20" y="210" width="190" height="220" as="geometry" />
        </mxCell>
        <mxCell id="Y7EgibA1khscgtq0bHv2-87" value="Note: contents of functions are wrapped in transparent boxes" style="text;html=1;align=center;verticalAlign=middle;whiteSpace=wrap;rounded=0;fillColor=#d5e8d4;strokeColor=#82b366;" vertex="1" parent="WIyWlLk6GJQsqaUBKTNV-1">
          <mxGeometry x="670" y="90" width="230" height="90" as="geometry" />
        </mxCell>
        <mxCell id="Y7EgibA1khscgtq0bHv2-88" value="" style="endArrow=classic;html=1;rounded=0;exitX=0;exitY=0.75;exitDx=0;exitDy=0;" edge="1" parent="WIyWlLk6GJQsqaUBKTNV-1" source="Y7EgibA1khscgtq0bHv2-80">
          <mxGeometry width="50" height="50" relative="1" as="geometry">
            <mxPoint x="390" y="420" as="sourcePoint" />
            <mxPoint x="160" y="400" as="targetPoint" />
          </mxGeometry>
        </mxCell>
      </root>
    </mxGraphModel>
  </diagram>
</mxfile>
